<svg width="50" height="50" viewBox="0 0 50 50" fill="none" xmlns="http://www.w3.org/2000/svg">
<circle cx="25" cy="25" r="24.5" fill="black" stroke="white"/>
<path fill-rule="evenodd" clip-rule="evenodd" d="M41.1575 25.6509L20.4924 13.8238C19.8816 13.4194 19.1689 13.7226 18.7617 14.2281L15.8095 19.3834L26.702 25.752L41.6666 26.2575L41.1575 25.651L41.1575 25.6509ZM9.09082 26.5608H9.19273C10.2107 26.5608 11.2287 27.1673 11.5342 28.1781C11.6361 28.4814 11.7378 28.7846 11.7378 29.0879V29.1891C12.5521 29.6947 13.4684 30.1999 14.3845 30.7055C15.4024 31.4132 16.5223 31.8175 17.2348 31.6154C18.4564 31.312 18.9655 29.8969 19.6779 28.5829L18.8635 27.7743C18.558 27.2687 19.3726 26.157 19.9834 25.2471C18.4563 24.4384 14.9953 22.7199 14.6898 21.9113C14.5879 21.3048 14.8934 21.0014 15.1989 20.4961L26.4988 26.8647L37.2896 27.269C35.7625 29.8972 34.3373 33.5366 32.8105 32.6265L23.6487 27.37C22.1216 29.9982 22.5288 29.796 21.002 29.2907C19.984 31.0092 19.4749 32.6265 17.6426 33.0309C17.6426 33.0309 16.3191 33.5364 14.9959 32.7275L11.2292 30.5037C10.8221 31.2114 10.0077 31.6157 9.19331 31.6157H9.0914V26.5614L9.09082 26.5608ZM40.5467 28.9867L38.3072 27.7737L35.8641 32.1203L38.0019 33.3333L40.5469 28.9867H40.5467Z" fill="white"/>
</svg>
