<svg version="1.1"
	xmlns="http://www.w3.org/2000/svg" x="0px" y="0px" viewBox="0 0 64.3 80.4" enable-background="new 0 0 64.3 80.4" xml:space="preserve">

	<path fill="#FFFFFF" d="M31.9,0.1c-0.5,0-0.9,0.2-1.3,0.5L1.1,21.1h0C0.4,21.6,0,22.4,0,23.3c0,0.9,0.4,1.7,1.1,2.2l9.1,6.3l-9.1,6.3
		C0.4,38.6,0,39.4,0,40.2c0,0.9,0.4,1.7,1.1,2.2l9.1,6.3L1.1,55C0.4,55.5,0,56.3,0,57.2c0,0.9,0.4,1.7,1.1,2.2L30.6,80h0
		c0.5,0.3,1,0.5,1.5,0.5c0.5,0,1.1-0.2,1.5-0.5l29.5-20.5h0c0.7-0.5,1.1-1.3,1.1-2.2c0-0.9-0.4-1.7-1.1-2.2l-9.1-6.3l9.1-6.3
		c0.7-0.5,1.1-1.3,1.1-2.2c0-0.9-0.4-1.7-1.1-2.2l-9.1-6.3l9.1-6.3c0.7-0.5,1.1-1.3,1.1-2.2c0-0.9-0.4-1.7-1.1-2.2L33.7,0.5
		C33.2,0.2,32.5,0,31.9,0.1L31.9,0.1z M32.2,6L57,23.3L32.2,40.6L7.4,23.3L32.2,6z M14.9,35.1L30.6,46v0c0.5,0.3,1,0.5,1.5,0.5
		c0.5,0,1.1-0.2,1.5-0.5l15.7-10.9l7.5,5.2L32.2,57.5L7.4,40.3L14.9,35.1L14.9,35.1z M14.9,52L30.6,63v0c0.5,0.3,1,0.5,1.5,0.5
		c0.5,0,1.1-0.2,1.5-0.5L49.4,52l7.5,5.2L32.2,74.5L7.4,57.2L14.9,52L14.9,52z"/>

</svg>