<svg width="42" height="51" viewBox="0 0 42 51" fill="none" xmlns="http://www.w3.org/2000/svg">
<mask id="path-1-inside-1_510_1297" fill="white">
<path fill-rule="evenodd" clip-rule="evenodd" d="M6 0C2.68629 0 0 2.68629 0 6V36C0 39.3137 2.68628 42 5.99999 42H12.1317L20.1818 50.2219L28.2319 42H35.1224C38.4361 42 41.1224 39.3137 41.1224 36V6C41.1224 2.68629 38.4361 0 35.1224 0H6Z"/>
</mask>
<path fill-rule="evenodd" clip-rule="evenodd" d="M6 0C2.68629 0 0 2.68629 0 6V36C0 39.3137 2.68628 42 5.99999 42H12.1317L20.1818 50.2219L28.2319 42H35.1224C38.4361 42 41.1224 39.3137 41.1224 36V6C41.1224 2.68629 38.4361 0 35.1224 0H6Z" fill="#039862"/>
<path d="M12.1317 42L12.8462 41.3004L12.5521 41H12.1317V42ZM20.1818 50.2219L19.4673 50.9215L20.1818 51.6513L20.8963 50.9215L20.1818 50.2219ZM28.2319 42V41H27.8115L27.5174 41.3004L28.2319 42ZM1 6C1 3.23858 3.23858 1 6 1V-1C2.13401 -1 -1 2.13401 -1 6H1ZM1 36V6H-1V36H1ZM5.99999 41C3.23857 41 1 38.7614 1 36H-1C-1 39.866 2.134 43 5.99999 43V41ZM12.1317 41H5.99999V43H12.1317V41ZM20.8963 49.5223L12.8462 41.3004L11.4171 42.6996L19.4673 50.9215L20.8963 49.5223ZM27.5174 41.3004L19.4673 49.5223L20.8963 50.9215L28.9465 42.6996L27.5174 41.3004ZM35.1224 41H28.2319V43H35.1224V41ZM40.1224 36C40.1224 38.7614 37.8838 41 35.1224 41V43C38.9884 43 42.1224 39.866 42.1224 36H40.1224ZM40.1224 6V36H42.1224V6H40.1224ZM35.1224 1C37.8838 1 40.1224 3.23857 40.1224 6H42.1224C42.1224 2.13401 38.9884 -1 35.1224 -1V1ZM6 1H35.1224V-1H6V1Z" fill="white" mask="url(#path-1-inside-1_510_1297)"/>
<path d="M20.0008 7.79368C20.1737 7.60846 20.4104 7.50271 20.6584 7.50002C20.9099 7.49733 21.1517 7.60063 21.3284 7.78652C21.5053 7.97219 21.6023 8.22453 21.5971 8.48586V11.2518L23.7939 9.35089C23.9781 9.15602 24.233 9.0514 24.4957 9.06285C24.7582 9.0743 25.0038 9.20069 25.1716 9.41083C25.3395 9.62098 25.4138 9.89533 25.3764 10.1656C25.3388 10.4359 25.1928 10.6771 24.9746 10.8293L21.5972 13.7562V20.3438L27.0553 17.1253L27.8198 12.5388C27.8528 12.3197 27.9576 12.1192 28.1162 11.9708C28.2747 11.8224 28.4778 11.7353 28.6908 11.7241C28.9736 11.7104 29.2471 11.8312 29.4335 12.0523C29.6201 12.2736 29.6994 12.5711 29.6489 12.8607L29.1458 15.8882L31.6717 14.3995C31.7955 14.3239 31.9346 14.2792 32.078 14.2689C32.361 14.2509 32.6364 14.3685 32.8258 14.5879C33.0151 14.8072 33.0978 15.1045 33.0501 15.395C33.0025 15.6855 32.8299 15.9374 32.5813 16.0793L30.1908 17.4975L32.7749 18.483C33.0058 18.5724 33.1933 18.7533 33.2959 18.9864C33.3983 19.2194 33.4078 19.4852 33.3216 19.7252C33.2356 19.9652 33.0615 20.1601 32.8373 20.2667C32.6131 20.3731 32.3575 20.3828 32.1264 20.2934L28.0618 18.7446L22.5455 22.0032L28.0618 25.2518L32.1264 23.703C32.2042 23.6718 32.2856 23.6513 32.3683 23.6426C32.6727 23.6096 32.9732 23.7344 33.1717 23.9764C33.3702 24.2182 33.4415 24.5462 33.3622 24.8533C33.283 25.1604 33.0633 25.4074 32.7749 25.5134L30.1812 26.509L32.5813 27.9171C32.8125 28.0332 32.987 28.2431 33.0639 28.4977C33.1408 28.7521 33.1129 29.0282 32.9872 29.2606C32.8613 29.4929 32.6485 29.6609 32.3994 29.7246C32.1502 29.7884 31.8868 29.7421 31.6717 29.5969L29.1457 28.1084L29.6489 31.1357C29.7063 31.395 29.6584 31.6671 29.5164 31.8885C29.3743 32.1096 29.1509 32.2602 28.8986 32.3045C28.6463 32.3489 28.3875 32.2831 28.1834 32.1231C27.9792 31.9628 27.8477 31.7219 27.8198 31.4576L27.0553 26.8712L21.5972 23.6527V30.2403L19.7389 29V23.6527L15.0936 26.3919L13.2744 25.2518L18.7906 22.0032L13.2744 18.7445L9.20974 20.2934C8.97863 20.3827 8.72308 20.3731 8.49885 20.2667C8.27462 20.16 8.10051 19.9652 8.01454 19.7252C7.92835 19.4852 7.93785 19.2194 8.04024 18.9863C8.14285 18.7533 8.33036 18.5724 8.56128 18.483L11.1453 17.4974L8.75484 16.0792C8.51851 15.945 8.35002 15.7108 8.29255 15.4376C8.23531 15.1641 8.29493 14.8783 8.45586 14.6541C8.61699 14.4298 8.86368 14.2893 9.13219 14.2688C9.3184 14.2558 9.50375 14.3014 9.66446 14.3995L12.1904 15.8882L11.6873 12.8607C11.64 12.5933 11.7033 12.3176 11.8616 12.1012C12.0202 11.885 12.2589 11.748 12.5194 11.724C12.754 11.7034 12.9873 11.7761 13.1725 11.9272C13.3574 12.0785 13.4803 12.297 13.5164 12.5388L14.2808 17.1252L19.739 20.3437V13.7561L16.3615 10.8292C16.1701 10.6676 16.0485 10.4332 16.0237 10.1782C15.9986 9.92313 16.0721 9.66831 16.228 9.46963C16.384 9.27116 16.6097 9.14499 16.8551 9.1194C17.1049 9.09717 17.3526 9.18046 17.5423 9.35086L19.739 11.2517V8.48583C19.7338 8.22787 19.8282 7.97867 20.0008 7.79368Z" fill="white"/>
<path fill-rule="evenodd" clip-rule="evenodd" d="M7.16347 24.6288C7.503 24.0306 8.25991 23.8228 8.85408 24.1646L25.3755 33.6692C25.9696 34.011 26.1761 34.773 25.8365 35.3712C25.497 35.9694 24.7401 36.1772 24.1459 35.8354L7.62455 26.3308C7.03038 25.989 6.82395 25.227 7.16347 24.6288Z" fill="white"/>
</svg>
